<svg width="48" height="48" viewBox="0 0 48 48" fill="none" xmlns="http://www.w3.org/2000/svg">
  <rect width="48" height="48" rx="8" fill="#10B981"/>
  <circle cx="24" cy="14" r="6" stroke="white" stroke-width="2" fill="none"/>
  <path d="M16 26C16 22.6863 18.6863 20 22 20H26C29.3137 20 32 22.6863 32 26V34C32 35.1046 31.1046 36 30 36H18C16.8954 36 16 35.1046 16 34V26Z" fill="white"/>
  <path d="M8 24C8 22.8954 8.89543 22 10 22H12V24C12 25.1046 11.1046 26 10 26H8V24Z" fill="white"/>
  <path d="M40 24C40 22.8954 39.1046 22 38 22H36V24C36 25.1046 36.8954 26 38 26H40V24Z" fill="white"/>
</svg>
